<?xml version="1.0" encoding="UTF-8" standalone="no"?>
<!-- Generator: Adobe Illustrator 19.2.1, SVG Export Plug-In . SVG Version: 6.00 Build 0)  -->

<svg
   version="1.1"
   id="layer"
   x="0px"
   y="0px"
   viewBox="0 0 600.16357 147.60001"
   xml:space="preserve"
   sodipodi:docname="bootstrap-logo-vector.svg"
   width="600.16357"
   height="147.60001"
   inkscape:version="1.1.1 (3bf5ae0d25, 2021-09-20)"
   xmlns:inkscape="http://www.inkscape.org/namespaces/inkscape"
   xmlns:sodipodi="http://sodipodi.sourceforge.net/DTD/sodipodi-0.dtd"
   xmlns="http://www.w3.org/2000/svg"
   xmlns:svg="http://www.w3.org/2000/svg"><defs
   id="defs10" /><sodipodi:namedview
   id="namedview8"
   pagecolor="#ffffff"
   bordercolor="#666666"
   borderopacity="1.0"
   inkscape:pageshadow="2"
   inkscape:pageopacity="0.0"
   inkscape:pagecheckerboard="0"
   showgrid="false"
   fit-margin-top="0"
   fit-margin-left="0"
   fit-margin-right="0"
   fit-margin-bottom="0"
   inkscape:zoom="1.2760736"
   inkscape:cx="304.44952"
   inkscape:cy="79.540865"
   inkscape:window-width="1920"
   inkscape:window-height="1017"
   inkscape:window-x="-8"
   inkscape:window-y="-8"
   inkscape:window-maximized="1"
   inkscape:current-layer="layer" />
<style
   type="text/css"
   id="style2">
	.st0{fill:#563D7C;}
</style>
<path
   class="st0"
   d="M 22,0.1 C 18.8,0.5 16.3,1.3 13.4,2.7 8.7,5.1 5.1,8.7 2.7,13.4 1.5,15.8 0.9,17.3 0.4,19.8 0,21.5 0,24.1 0,73.8 c 0,49.7 0,52.3 0.4,54 0.5,2.5 1.1,4 2.3,6.4 2.4,4.7 6,8.3 10.7,10.7 2.4,1.2 3.9,1.8 6.4,2.3 1.7,0.4 4.3,0.4 54,0.4 49.7,0 52.3,0 54,-0.4 2.5,-0.5 4,-1.1 6.4,-2.3 4.7,-2.4 8.3,-6 10.7,-10.7 1.2,-2.4 1.8,-3.9 2.3,-6.4 0.4,-1.7 0.4,-4.3 0.4,-54 0,-49.7 0,-52.3 -0.4,-54 -0.5,-2.5 -1.1,-4 -2.3,-6.4 C 141.5,6.8 135.6,2.3 128.1,0.4 126.6,0 123.9,0 74.6,0 46,0 22.4,0.1 22,0.1 Z m 66.5,32.4 c 10,1.9 15.9,6.4 18.1,13.9 1.1,3.8 1.2,9.1 0.2,12.7 -0.4,1.6 -1.7,4.3 -2.6,5.6 -1.7,2.4 -4.6,4.8 -7.6,6.3 -0.7,0.4 -1.3,0.7 -1.3,0.8 0,0.1 0.5,0.3 1.1,0.4 0.6,0.1 1.8,0.5 2.7,0.9 7.8,3.1 12.3,10.6 12.3,20.9 0,6 -1.9,11.4 -5.4,15.1 -4,4.3 -9.5,6.9 -17.6,8.4 -1.8,0.3 -4.4,0.4 -25.1,0.4 L 40.1,118 V 31.9 L 63.5,32 c 20.1,0.2 23.5,0.2 25,0.5 z M 55.2,56.2 V 68.1 L 69,68 c 12.1,-0.1 13.9,-0.1 14.9,-0.4 3.3,-1 6.1,-3.1 7.3,-5.7 0.9,-1.9 1.2,-3.2 1.2,-6 0,-5.3 -1.6,-8.4 -5.1,-10.1 -3,-1.4 -3,-1.4 -18.2,-1.5 L 55.2,44.2 Z m 0,36.2 v 13.5 l 15,-0.1 c 14.7,-0.1 15.1,-0.1 16.7,-0.5 2.4,-0.7 4.1,-1.6 5.7,-3.3 2.6,-2.5 3.5,-5.3 3.5,-9.7 0,-4.4 -1.1,-7.2 -3.6,-9.7 C 90.8,81 89.2,80.2 86.6,79.5 84.9,79.1 84.4,79 70,79 L 55.2,78.9 Z"
   id="path4" />
<path
   id="Shape"
   class="st0"
   d="m 197.3,32.3 c 0.3,-0.1 0.6,-0.2 0.9,-0.2 11.2,0 22.3,0 33.5,0.2 3.8,0.1 7.3,1.4 10.4,3.7 7.1,5.2 7.8,19.9 -2,25.2 -0.5,0.3 -1,0.5 -1.7,0.9 1.9,0.9 3.7,1.5 5.2,2.5 5.9,4 8.3,12.9 5.6,20.7 -2.3,6.8 -7.8,9.7 -14.1,11.2 -2.1,0.5 -4.3,0.7 -6.4,0.8 -10.4,0.1 -20.9,0 -31.4,0 0,-21.6 0,-43.3 0,-65 z m 11.1,55.5 c 7.8,0 15.3,0.2 22.8,-0.1 4.7,-0.2 8.1,-5.3 7.9,-10.3 -0.3,-5 -3.3,-9.2 -7.9,-9.4 -7.5,-0.4 -14.9,-0.3 -22.4,-0.3 -0.1,0 -0.2,0.2 -0.4,0.3 z m 0.1,-28.6 c 6.9,0 13.6,0.3 20.3,-0.1 4.9,-0.3 7.7,-4.2 7.5,-9.7 -0.2,-4.8 -3,-7.7 -8,-7.9 -6.3,-0.2 -12.6,-0.1 -19,-0.1 -0.3,0 -0.5,0.1 -0.8,0.2 z m 345.6,-8.9 h 9.3 v 5.1 c 1,-0.8 2.3,-1.7 3.5,-2.7 7.1,-6.2 24,-5.5 29.8,7.1 5,10.8 4.8,21.7 -2,31.7 -3.7,5.6 -9.5,7.6 -16,7.2 C 573,98.4 568,96.6 564.1,91.2 v 23.7 h -10 c 0,-21.6 0,-43.1 0,-64.6 z m 9.4,23.8 c 0.4,2.4 0.6,4.8 1.3,7.1 1.4,5.1 5.8,8.9 10.4,9.3 6.1,0.4 10.5,-1.9 12.7,-7.4 2.8,-7 2.7,-14.1 -1.4,-20.6 -4.8,-7.7 -16.4,-7.1 -20.5,1 -1.7,3.3 -2.5,6.8 -2.5,10.6 z m -16,16.5 c 0,1.9 0.1,3.9 0,5.9 0,0.5 -0.6,1.3 -1,1.3 -2.9,0.2 -5.8,0.7 -8.7,0.4 -2.5,-0.3 -3.9,-2.5 -4.7,-5 -6,5 -12.9,6 -20.2,5.1 -6.1,-0.8 -11.2,-5.9 -11.6,-11.6 -0.6,-7.8 2.3,-12.9 9.2,-14.8 4.8,-1.3 9.9,-1.8 14.8,-2.7 1.2,-0.2 2.4,-0.4 3.6,-0.7 2.3,-0.6 3.9,-1.9 4,-4.5 0.2,-2.7 -0.9,-4.8 -3.3,-5.8 -4.2,-1.7 -8.6,-1.7 -12.8,0.3 -1.9,0.9 -3,2.7 -4,5.9 H 503 c 0,-3.8 1.3,-7 3.8,-9.7 3.3,-3.6 7.6,-5 12.2,-5.4 4.8,-0.5 9.6,-0.5 14.3,1.1 6.3,2.2 9.3,6.4 9.3,13.2 0,7.2 0,14.4 0,21.6 -0.1,5 -0.1,5 4.9,5.4 z M 532.3,74.4 c -3.1,0.5 -5.9,1 -8.7,1.6 -2.9,0.6 -5.9,1.2 -8.7,2.2 -2.7,1 -3.7,3.6 -3.6,6.4 0.1,2.7 1.9,4.2 4.2,5 4,1.4 8,1.2 11.7,-0.6 2.7,-1.3 4.8,-3.4 5,-6.6 0.3,-2.7 0.1,-5.4 0.1,-8 z M 280.2,48.9 c 15.4,-0.2 24.4,11.3 23.4,26.9 -0.3,5.4 -1.8,10.5 -5.3,14.8 -3.8,4.6 -8.6,7.1 -14.5,7.7 -4.9,0.6 -9.6,0.2 -14.1,-1.9 -6.7,-3.1 -10.6,-8.5 -12.2,-15.8 -1.1,-5 -1.1,-9.9 0.2,-14.8 2.8,-10.7 11,-16.8 22.5,-16.9 z m -13.4,25 c 0.4,2.3 0.6,4.6 1.2,6.9 1.6,5.7 6,9.4 11,9.7 6.2,0.3 10.5,-2.4 12.9,-8.2 2.3,-5.8 2.3,-11.6 -0.2,-17.3 -3.7,-8.4 -13.6,-10.6 -20,-4.3 -3.7,3.4 -4.6,8.1 -4.9,13.2 z m 66.7,-25 c 13.9,0 23.3,9.5 23.5,23.7 0.1,6 -0.9,11.7 -4.3,16.7 -4.9,7.2 -12,9.7 -20.2,9.3 -3,-0.1 -6.2,-0.8 -9,-2 -6.6,-2.6 -10.6,-7.9 -12.3,-14.8 -1.5,-6.1 -1.4,-12.2 0.6,-18.2 2.9,-9.2 11.2,-14.7 21.7,-14.7 z m 13.3,23.7 c -0.2,-1.3 -0.4,-3.7 -1.1,-6 -1.7,-5.8 -6.2,-9.4 -11.8,-9.6 -5.3,-0.2 -10.1,2.9 -12.1,8.5 -2.4,6.6 -2.2,13.1 1.4,19.2 3.8,6.4 12.4,7.8 18.1,3 4.3,-3.6 5.3,-8.6 5.5,-15.1 z m 85.7,-9.2 c -3.2,0 -6.2,0 -9.3,0 -0.4,0 -1,-0.4 -1.1,-0.7 -1.7,-4.9 -5.8,-5.5 -10,-5.5 -1.7,0 -3.6,0.4 -5.2,1.1 -3.5,1.5 -3.8,5.5 -0.6,7.4 2.2,1.3 4.9,2 7.4,2.8 3.6,1 7.3,1.7 10.9,2.7 9.1,2.8 12.7,12.1 7.6,19.8 -2.4,3.7 -6.1,5.7 -10.3,6.7 -6.2,1.5 -12.4,1.6 -18.4,-0.6 -6.5,-2.4 -9.9,-7.2 -10.4,-14.4 h 9.9 c 2.8,7.5 10.8,10.4 18.2,6.6 1.7,-0.9 2.9,-2.1 3,-4.2 0.1,-2.2 -0.7,-4.1 -2.7,-4.9 -3.5,-1.3 -7.1,-2.2 -10.7,-3.3 -3,-0.9 -6,-1.5 -8.8,-2.7 -5.5,-2.2 -7.9,-6 -7.9,-11.9 0,-5.1 2.9,-9.4 8.1,-11.3 7.1,-2.6 14.4,-3 21.5,-0.1 4.8,1.9 7.7,5.7 8.9,10.8 0,0.4 -0.1,0.9 -0.1,1.7 z M 378.8,50.1 h 9.2 v 7.6 h -9 c -0.1,0.9 -0.1,1.6 -0.1,2.2 0,7.7 0,15.4 0,23.1 0,1 0.1,2.1 0.2,3.1 0.2,2 1.3,3.2 3.3,3.4 1.8,0.1 3.7,0 5.7,0 v 7.6 c -4.2,1.1 -8.4,1 -12.5,0.1 -4.8,-1.1 -6.7,-4.5 -6.8,-10.8 -0.1,-8.7 0,-17.3 0,-26 v -2.5 h -7.6 v -7.7 h 7.5 V 36.1 H 379 c -0.2,4.6 -0.2,9.2 -0.2,14 z m 85.6,47.4 c -3.9,0 -7.7,0.1 -11.4,0 -3.6,-0.2 -6.4,-2.6 -7.2,-6.2 -0.4,-2.1 -0.7,-4.2 -0.7,-6.3 -0.1,-8.1 0,-16.3 0,-24.4 V 58 h -7.6 V 50.4 H 445 V 36.2 h 10.3 v 14 h 9.1 v 7.7 h -8.7 c -0.1,0.7 -0.2,1.2 -0.2,1.6 0,8.3 0,16.6 0,24.9 0,4.4 1.2,5.4 5.4,5.4 1.1,0 2.3,0 3.6,0 z m 17.1,-47.2 v 8 c 3.9,-6.8 9.4,-10.4 17.5,-9.2 V 59 c -3.8,-0.6 -7.5,-0.7 -10.8,1.7 -4.3,3.1 -5.8,7.8 -5.9,12.8 -0.2,7.8 0,15.7 0,23.7 h -10.1 v -47 c 3,0.1 6,0.1 9.3,0.1 z" />
</svg>
