<?xml version="1.0" encoding="UTF-8"?>
<svg width="1411px" height="589px" viewBox="0 0 1411 589" version="1.1" xmlns="http://www.w3.org/2000/svg" xmlns:xlink="http://www.w3.org/1999/xlink">
    <!-- Generator: Sketch 64 (93537) - https://sketch.com -->
    <title>imperator-rome-logo</title>
    <desc>Created with Sketch.</desc>
    <defs>
        <polygon id="path-1" points="0.917 0.059 208.438 0.059 208.438 90.94 0.917 90.94"></polygon>
        <polygon id="path-3" points="400.355419 0.000234179907 1007.66485 0.000234179907 1007.66485 587.110234 400.355419 587.110234"></polygon>
    </defs>
    <g id="Page-1" stroke="none" stroke-width="1" fill="none" fill-rule="evenodd">
        <g id="imperator-rome-logo" transform="translate(0.000000, 0.614766)">
            <line x1="345.113" y1="447.014234" x2="1065.7" y2="447.014234" id="Stroke-1" stroke="#A18564" stroke-width="6" stroke-linecap="round"></line>
            <path d="M15.286,312.988234 C15.286,286.585234 15.286,281.721234 14.939,276.162234 C14.591,270.256234 12.855,267.304234 9.033,266.435234 C7.122,265.913234 4.864,265.740234 2.779,265.740234 C1.042,265.740234 0,265.392234 0,264.003234 C0,262.960234 1.39,262.613234 4.169,262.613234 C10.77,262.613234 21.714,263.134234 26.751,263.134234 C31.093,263.134234 41.342,262.613234 47.943,262.613234 C50.201,262.613234 51.591,262.960234 51.591,264.003234 C51.591,265.392234 50.548,265.740234 48.812,265.740234 C47.074,265.740234 45.685,265.913234 43.6,266.261234 C38.91,267.130234 37.521,270.083234 37.173,276.162234 C36.826,281.721234 36.826,286.585234 36.826,312.988234 L36.826,343.560234 C36.826,360.409234 36.826,374.132234 37.521,381.601234 C38.042,386.291234 39.258,389.418234 44.469,390.113234 C46.901,390.460234 50.722,390.808234 53.328,390.808234 C55.238,390.808234 56.107,391.329234 56.107,392.198234 C56.107,393.413234 54.717,393.935234 52.807,393.935234 C41.342,393.935234 30.399,393.413234 25.709,393.413234 C21.714,393.413234 10.77,393.935234 3.821,393.935234 C1.564,393.935234 0.348,393.413234 0.348,392.198234 C0.348,391.329234 1.042,390.808234 3.127,390.808234 C5.733,390.808234 7.817,390.460234 9.38,390.113234 C12.855,389.418234 13.897,386.465234 14.418,381.428234 C15.286,374.132234 15.286,360.409234 15.286,343.560234 L15.286,312.988234" id="Fill-2" fill="#A18564"></path>
            <path d="M134.967,264.698234 C135.488,261.745234 136.53,260.181234 137.92,260.181234 C139.31,260.181234 140.352,261.050234 142.61,265.566234 L190.031,362.146234 L237.279,264.351234 C238.669,261.572234 239.538,260.181234 241.101,260.181234 C242.665,260.181234 243.707,261.918234 244.228,265.566234 L260.035,371.874234 C261.599,382.818234 263.336,387.855234 268.547,389.418234 C273.584,390.982234 277.058,391.156234 279.317,391.156234 C280.88,391.156234 282.096,391.329234 282.096,392.371234 C282.096,393.761234 280.011,394.282234 277.579,394.282234 C273.237,394.282234 249.265,393.935234 242.317,393.413234 C238.322,393.066234 237.279,392.545234 237.279,391.502234 C237.279,390.634234 237.975,390.113234 239.191,389.592234 C240.233,389.244234 240.754,386.987234 240.059,382.122234 L229.637,306.561234 L228.942,306.561234 L191.074,384.033234 C187.079,392.198234 186.21,393.761234 184.647,393.761234 C183.083,393.761234 181.346,390.286234 178.567,385.075234 C174.398,377.085234 160.675,350.509234 158.591,345.644234 C157.027,341.997234 146.605,321.499234 140.526,308.472234 L139.831,308.472234 L130.798,376.216234 C130.45,379.343234 130.277,381.601234 130.277,384.380234 C130.277,387.681234 132.535,389.244234 135.488,389.939234 C138.614,390.634234 141.047,390.808234 142.783,390.808234 C144.173,390.808234 145.389,391.156234 145.389,392.024234 C145.389,393.587234 143.826,393.935234 141.22,393.935234 C133.924,393.935234 126.108,393.413234 122.981,393.413234 C119.681,393.413234 111.343,393.935234 105.784,393.935234 C104.047,393.935234 102.657,393.587234 102.657,392.024234 C102.657,391.156234 103.7,390.808234 105.437,390.808234 C106.826,390.808234 108.042,390.808234 110.648,390.286234 C115.512,389.244234 116.902,382.470234 117.77,376.564234 L134.967,264.698234" id="Fill-3" fill="#A18564"></path>
            <path d="M344.452,312.988234 C344.452,286.585234 344.452,281.721234 344.105,276.162234 C343.757,270.256234 342.368,267.477234 336.635,266.261234 C335.246,265.913234 332.293,265.740234 329.861,265.740234 C327.95,265.740234 326.908,265.392234 326.908,264.177234 C326.908,262.960234 328.124,262.613234 330.73,262.613234 C339.936,262.613234 350.88,263.134234 355.743,263.134234 C362.865,263.134234 372.94,262.613234 380.931,262.613234 C402.644,262.613234 410.461,269.909234 413.24,272.515234 C417.062,276.162234 421.925,283.980234 421.925,293.185234 C421.925,317.852234 403.859,335.222234 379.193,335.222234 C378.325,335.222234 376.414,335.222234 375.546,335.048234 C374.677,334.874234 373.461,334.700234 373.461,333.486234 C373.461,332.095234 374.677,331.574234 378.325,331.574234 C388.052,331.574234 401.602,320.631234 401.602,302.913234 C401.602,297.181234 401.08,285.542234 391.353,276.857234 C385.1,271.124234 377.978,270.083234 373.983,270.083234 C371.377,270.083234 368.771,270.256234 367.208,270.777234 C366.339,271.124234 365.818,272.167234 365.818,274.077234 L365.818,343.560234 C365.818,359.540234 365.818,373.263234 366.687,380.733234 C367.208,385.597234 368.25,389.418234 373.461,390.113234 C375.893,390.460234 379.714,390.808234 382.32,390.808234 C384.231,390.808234 385.1,391.329234 385.1,392.198234 C385.1,393.413234 383.71,393.935234 381.799,393.935234 C370.335,393.935234 359.391,393.413234 354.875,393.413234 C350.88,393.413234 339.936,393.935234 332.987,393.935234 C330.73,393.935234 329.514,393.413234 329.514,392.198234 C329.514,391.329234 330.208,390.808234 332.293,390.808234 C334.899,390.808234 336.983,390.460234 338.546,390.113234 C342.021,389.418234 342.889,385.597234 343.584,380.559234 C344.452,373.263234 344.452,359.540234 344.452,343.560234 L344.452,312.988234" id="Fill-4" fill="#A18564"></path>
            <path d="M492.968,312.988234 C492.968,286.585234 492.968,281.721234 492.62,276.162234 C492.273,270.256234 490.883,267.477234 485.151,266.261234 C483.761,265.913234 480.809,265.740234 478.377,265.740234 C476.466,265.740234 475.423,265.392234 475.423,264.177234 C475.423,262.960234 476.64,262.613234 479.245,262.613234 C483.935,262.613234 488.973,262.786234 493.316,262.786234 C497.832,262.960234 501.827,263.134234 504.259,263.134234 C509.818,263.134234 544.385,263.134234 547.685,262.960234 C550.985,262.613234 553.765,262.266234 555.154,261.918234 C556.023,261.745234 557.066,261.224234 557.934,261.224234 C558.802,261.224234 558.976,261.918234 558.976,262.786234 C558.976,264.003234 558.108,266.087234 557.587,274.077234 C557.413,275.815234 557.066,283.458234 556.718,285.542234 C556.544,286.411234 556.197,287.452234 554.981,287.452234 C553.765,287.452234 553.418,286.585234 553.418,285.021234 C553.418,283.806234 553.244,280.853234 552.375,278.768234 C551.159,275.642234 549.422,273.556234 540.737,272.515234 C537.784,272.167234 519.545,271.820234 516.071,271.820234 C515.202,271.820234 514.855,272.341234 514.855,273.556234 L514.855,317.504234 C514.855,318.720234 515.028,319.415234 516.071,319.415234 C519.892,319.415234 539.868,319.415234 543.864,319.068234 C548.033,318.720234 550.638,318.199234 552.202,316.462234 C553.418,315.073234 554.112,314.204234 554.981,314.204234 C555.676,314.204234 556.197,314.552234 556.197,315.593234 C556.197,316.636234 555.502,319.415234 554.807,328.275234 C554.633,331.748234 554.112,338.697234 554.112,339.911234 C554.112,341.302234 554.112,343.212234 552.549,343.212234 C551.333,343.212234 550.985,342.519234 550.985,341.650234 C550.812,339.911234 550.812,337.654234 550.291,335.396234 C549.422,331.921234 546.99,329.316234 540.564,328.621234 C537.263,328.275234 520.066,328.101234 515.897,328.101234 C515.028,328.101234 514.855,328.795234 514.855,329.837234 L514.855,343.560234 C514.855,349.466234 514.681,365.447234 514.855,370.484234 C515.202,382.470234 517.982,385.075234 535.699,385.075234 C540.216,385.075234 547.512,385.075234 552.028,382.991234 C556.544,380.907234 558.629,377.259234 559.845,370.137234 C560.192,368.226234 560.54,367.532234 561.755,367.532234 C563.145,367.532234 563.145,368.921234 563.145,370.658234 C563.145,374.654234 561.755,386.465234 560.887,389.939234 C559.671,394.455234 558.108,394.455234 551.507,394.455234 C538.479,394.455234 528.925,394.109234 521.456,393.935234 C513.986,393.587234 508.602,393.413234 503.39,393.413234 C501.48,393.413234 497.658,393.413234 493.489,393.587234 C489.494,393.587234 484.978,393.935234 481.503,393.935234 C479.245,393.935234 478.029,393.413234 478.029,392.198234 C478.029,391.329234 478.724,390.808234 480.809,390.808234 C483.414,390.808234 485.499,390.460234 487.062,390.113234 C490.536,389.418234 491.404,385.597234 492.099,380.559234 C492.968,373.263234 492.968,359.540234 492.968,343.560234 L492.968,312.988234" id="Fill-5" fill="#A18564"></path>
            <path d="M657.984,326.710234 C657.984,328.621234 658.332,329.316234 659.547,329.837234 C663.195,331.054234 668.406,331.574234 672.749,331.574234 C679.697,331.574234 681.956,330.880234 685.082,328.621234 C690.294,324.800234 695.332,316.810234 695.332,302.566234 C695.332,277.900234 679.003,270.777234 668.754,270.777234 C664.411,270.777234 661.285,270.950234 659.547,271.472234 C658.332,271.820234 657.984,272.515234 657.984,273.904234 L657.984,326.710234 Z M637.487,312.988234 C637.487,286.585234 637.487,281.721234 637.14,276.162234 C636.792,270.256234 635.402,267.477234 629.67,266.261234 C628.28,265.913234 625.327,265.740234 622.896,265.740234 C620.985,265.740234 619.943,265.392234 619.943,264.177234 C619.943,262.960234 621.158,262.613234 623.764,262.613234 C632.971,262.613234 643.914,263.134234 647.562,263.134234 C653.468,263.134234 666.67,262.613234 672.054,262.613234 C682.998,262.613234 694.636,263.656234 704.016,270.083234 C708.88,273.383234 715.829,282.241234 715.829,293.880234 C715.829,306.735234 710.444,318.546234 692.899,332.790234 C704.651,353.366234 715.345,367.704234 725.593,378.475234 C735.321,388.550234 741.443,389.766234 744.048,390.286234 C745.96,390.634234 746.523,390.808234 747.913,390.808234 C749.302,390.808234 749.997,391.329234 749.997,392.198234 C749.997,393.587234 748.781,393.935234 746.697,393.935234 L732.195,393.935234 C722.467,393.935234 718.125,393.066234 713.608,390.634234 C706.138,386.639234 698.495,379.174234 689.81,365.099234 C683.651,355.116234 679.871,343.734234 677.613,341.128234 C676.744,340.085234 675.702,339.911234 674.486,339.911234 L659.374,339.566234 C658.505,339.566234 657.984,339.911234 657.984,340.954234 L657.984,343.386234 C657.984,359.540234 657.984,373.263234 658.853,380.559234 C659.374,385.597234 660.416,389.418234 665.627,390.113234 C668.233,390.460234 672.054,390.808234 674.139,390.808234 C675.528,390.808234 676.223,391.329234 676.223,392.198234 C676.223,393.413234 675.007,393.935234 672.749,393.935234 C662.674,393.935234 649.82,393.413234 647.214,393.413234 C643.914,393.413234 632.971,393.935234 626.023,393.935234 C623.764,393.935234 622.548,393.413234 622.548,392.198234 C622.548,391.329234 623.243,390.808234 625.327,390.808234 C627.933,390.808234 630.018,390.460234 631.581,390.113234 C635.055,389.418234 635.923,385.597234 636.618,380.559234 C637.487,373.263234 637.487,359.540234 637.487,343.560234 L637.487,312.988234 L637.487,312.988234 Z" id="Fill-6" fill="#A18564"></path>
            <path d="M845.755,340.954234 C846.625,340.954234 846.798,340.433234 846.625,339.911234 L830.991,297.181234 C830.817,296.486234 830.643,295.617234 830.123,295.617234 C829.601,295.617234 829.254,296.486234 829.08,297.181234 L813.099,339.740234 C812.925,340.433234 813.099,340.954234 813.794,340.954234 L845.755,340.954234 Z M810.32,349.640234 C809.451,349.640234 809.104,349.988234 808.756,351.029234 L799.377,374.826234 C797.639,379.169234 796.771,383.338234 796.771,385.423234 C796.771,388.550234 798.334,390.808234 803.719,390.808234 L806.325,390.808234 C808.409,390.808234 808.93,391.156234 808.93,392.198234 C808.93,393.587234 807.888,393.935234 805.977,393.935234 C800.419,393.935234 792.949,393.413234 787.564,393.413234 C785.654,393.413234 778.099,393.935234 769.067,393.935234 C766.809,393.935234 765.766,393.587234 765.766,392.198234 C765.766,391.156234 766.462,390.808234 767.851,390.808234 C769.415,390.808234 769.846,390.634234 771.236,390.460234 C779.226,389.418234 782.527,383.512234 786.001,374.826234 L829.601,267.130234 C831.685,262.092234 832.728,260.181234 834.464,260.181234 C836.028,260.181234 837.071,261.745234 838.807,265.740234 C842.976,275.294234 870.769,344.777234 881.886,371.179234 C888.488,386.813234 893.525,389.244234 897.172,390.113234 C899.778,390.634234 902.384,390.808234 904.468,390.808234 C905.858,390.808234 906.726,390.982234 906.726,392.198234 C906.726,393.587234 905.164,393.935234 898.736,393.935234 C892.483,393.935234 879.802,393.935234 865.906,393.587234 C862.779,393.413234 860.695,393.413234 860.695,392.198234 C860.695,391.156234 861.389,390.808234 863.127,390.634234 C864.342,390.286234 865.558,388.723234 864.69,386.639234 L850.794,350.857234 C850.446,349.988234 849.924,349.640234 849.056,349.640234 L810.32,349.640234 L810.32,349.640234 Z" id="Fill-7" fill="#A18564"></path>
            <path d="M971.518,272.341234 L945.635,273.035234 C935.561,273.383234 931.392,274.251234 928.786,278.074234 C927.049,280.679234 926.18,282.763234 925.834,284.153234 C925.486,285.542234 924.964,286.238234 923.922,286.238234 C922.707,286.238234 922.359,285.368234 922.359,283.458234 C922.359,280.679234 925.66,264.871234 926.006,263.482234 C926.528,261.224234 927.049,260.181234 928.091,260.181234 C929.481,260.181234 931.218,261.918234 935.561,262.266234 C940.598,262.786234 947.199,263.134234 952.931,263.134234 L1021.72,263.134234 C1027.28,263.134234 1031.1,262.613234 1033.7,262.266234 C1036.31,261.745234 1037.7,261.398234 1038.4,261.398234 C1039.61,261.398234 1039.78,262.439234 1039.78,265.045234 C1039.78,268.693234 1039.26,280.679234 1039.26,285.195234 C1039.09,286.932234 1038.74,287.974234 1037.7,287.974234 C1036.31,287.974234 1035.96,287.106234 1035.79,284.500234 L1035.62,282.589234 C1035.27,278.074234 1030.58,273.209234 1015.12,272.863234 L993.231,272.341234 L993.231,343.560234 C993.231,359.540234 993.231,373.263234 994.099,380.733234 C994.621,385.597234 995.663,389.418234 1000.87,390.113234 C1003.31,390.460234 1007.13,390.808234 1009.73,390.808234 C1011.64,390.808234 1012.51,391.329234 1012.51,392.198234 C1012.51,393.413234 1011.12,393.935234 1009.21,393.935234 C997.748,393.935234 986.804,393.413234 981.94,393.413234 C977.945,393.413234 967.002,393.935234 960.053,393.935234 C957.796,393.935234 956.579,393.413234 956.579,392.198234 C956.579,391.329234 957.274,390.808234 959.358,390.808234 C961.964,390.808234 964.048,390.460234 965.612,390.113234 C969.086,389.418234 970.129,385.597234 970.649,380.559234 C971.518,373.263234 971.518,359.540234 971.518,343.560234 L971.518,272.341234" id="Fill-8" fill="#A18564"></path>
            <path d="M1199.42,331.574234 C1199.42,292.664234 1177.01,268.519234 1148.52,268.519234 C1128.54,268.519234 1105.79,279.636234 1105.79,322.890234 C1105.79,359.020234 1125.76,387.681234 1159.12,387.681234 C1171.28,387.681234 1199.42,381.775234 1199.42,331.574234 Z M1081.82,328.275234 C1081.82,298.570234 1101.45,260.181234 1153.56,260.181234 C1196.81,260.181234 1223.73,285.368234 1223.73,325.148234 C1223.73,364.925234 1195.94,396.366234 1151.82,396.366234 C1101.97,396.366234 1081.82,359.020234 1081.82,328.275234 L1081.82,328.275234 Z" id="Fill-9" fill="#A18564"></path>
            <path d="M1311.8,326.710234 C1311.8,328.621234 1312.15,329.316234 1313.36,329.837234 C1317.01,331.054234 1322.22,331.574234 1326.56,331.574234 C1333.51,331.574234 1335.77,330.880234 1338.9,328.621234 C1344.11,324.800234 1349.15,316.810234 1349.15,302.566234 C1349.15,277.900234 1332.82,270.777234 1322.57,270.777234 C1318.23,270.777234 1315.1,270.950234 1313.36,271.472234 C1312.15,271.820234 1311.8,272.515234 1311.8,273.904234 L1311.8,326.710234 Z M1291.3,312.988234 C1291.3,286.585234 1291.3,281.721234 1290.95,276.162234 C1290.61,270.256234 1289.22,267.477234 1283.48,266.261234 C1282.09,265.913234 1279.14,265.740234 1276.71,265.740234 C1274.8,265.740234 1273.76,265.392234 1273.76,264.177234 C1273.76,262.960234 1274.97,262.613234 1277.58,262.613234 C1286.78,262.613234 1297.73,263.134234 1301.38,263.134234 C1307.28,263.134234 1320.48,262.613234 1325.87,262.613234 C1336.81,262.613234 1348.45,263.656234 1357.83,270.083234 C1362.69,273.383234 1369.64,282.241234 1369.64,293.880234 C1369.64,306.735234 1364.26,318.546234 1346.71,332.790234 C1362.17,352.245234 1374.16,367.704234 1384.41,378.475234 C1394.13,388.550234 1401.26,389.766234 1403.86,390.286234 C1405.77,390.634234 1407.34,390.808234 1408.73,390.808234 C1410.12,390.808234 1410.81,391.329234 1410.81,392.198234 C1410.81,393.587234 1409.59,393.935234 1407.51,393.935234 L1391.01,393.935234 C1381.28,393.935234 1376.94,393.066234 1372.42,390.634234 C1364.95,386.639234 1358.35,378.475234 1348.62,365.099234 C1341.68,355.546234 1333.69,343.734234 1331.43,341.128234 C1330.56,340.085234 1329.52,339.911234 1328.3,339.911234 L1313.19,339.566234 C1312.32,339.566234 1311.8,339.911234 1311.8,340.954234 L1311.8,343.386234 C1311.8,359.540234 1311.8,373.263234 1312.67,380.559234 C1313.19,385.597234 1314.23,389.418234 1319.44,390.113234 C1322.05,390.460234 1325.87,390.808234 1327.95,390.808234 C1329.34,390.808234 1330.04,391.329234 1330.04,392.198234 C1330.04,393.413234 1328.82,393.935234 1326.56,393.935234 C1316.49,393.935234 1303.63,393.413234 1301.03,393.413234 C1297.73,393.413234 1286.78,393.935234 1279.84,393.935234 C1277.58,393.935234 1276.36,393.413234 1276.36,392.198234 C1276.36,391.329234 1277.06,390.808234 1279.14,390.808234 C1281.75,390.808234 1283.83,390.460234 1285.4,390.113234 C1288.87,389.418234 1289.74,385.597234 1290.43,380.559234 C1291.3,373.263234 1291.3,359.540234 1291.3,343.560234 L1291.3,312.988234 L1291.3,312.988234 Z" id="Fill-10" fill="#A18564"></path>
            <g id="Group-14" transform="translate(478.000000, 497.385234)">
                <mask id="mask-2" fill="white">
                    <use xlink:href="#path-1"></use>
                </mask>
                <g id="Clip-12"></g>
                <path d="M32.352,43.094 C32.352,44.022 32.7,44.485 33.396,44.833 C35.599,45.993 39.08,46.341 42.328,46.341 C45.46,46.341 47.779,45.877 49.635,44.485 C52.071,42.63 54.159,37.642 54.159,29.87 C54.159,13.398 43.719,9.106 37.687,9.106 C35.832,9.106 33.86,9.222 33.047,9.57 C32.584,9.802 32.352,9.918 32.352,10.847 L32.352,43.094 Z M12.4,35.321 C12.4,17.342 12.169,15.023 12.052,11.31 C11.82,6.554 10.428,5.046 7.644,4.466 C5.904,4.118 4.048,4.118 3.005,4.003 C1.612,3.886 0.917,3.423 0.917,2.727 C0.917,2.03 1.728,1.683 3.468,1.683 C8.457,1.683 19.592,2.03 21.216,2.03 C23.42,2.03 34.555,1.683 39.891,1.683 C50.796,1.683 58.451,2.727 63.555,5.626 C69.123,8.642 74.111,14.558 74.111,23.374 C74.111,33.117 68.543,40.541 58.567,46.69 C65.643,56.898 74.111,69.309 81.186,77.429 C87.335,84.273 90.119,86.244 93.366,86.708 C94.642,86.941 95.339,86.941 96.266,87.057 C97.543,87.057 98.238,87.521 98.238,88.217 C98.238,89.261 97.078,89.376 95.919,89.376 L85.478,89.376 C73.531,89.376 68.426,88.217 64.367,85.549 C60.655,83.345 56.943,78.357 52.42,71.049 C47.084,62.233 44.416,57.478 42.328,54.345 C42.095,53.997 41.515,53.649 40.935,53.649 L33.28,53.649 C32.7,53.649 32.352,53.881 32.352,54.577 L32.352,60.493 C32.352,69.657 32.352,75.108 32.931,79.981 C33.164,82.996 33.975,85.549 37.456,86.36 C39.08,86.824 40.355,86.824 42.675,87.057 C44.532,87.173 44.763,87.637 44.763,88.332 C44.763,89.028 43.952,89.376 42.328,89.376 C34.555,89.376 21.912,89.028 21.1,89.028 C19.708,89.028 8.457,89.376 4.512,89.376 C2.772,89.376 2.192,89.028 2.192,88.217 C2.192,87.404 3.005,87.057 4.28,87.057 C5.44,86.941 6.948,86.824 8.224,86.593 C10.545,86.013 11.472,83.925 11.82,79.981 C12.284,75.108 12.4,66.989 12.4,55.737 L12.4,35.321 L12.4,35.321 Z" id="Fill-11" fill="#A18564" mask="url(#mask-2)"></path>
                <path d="M185.239,48.43 C185.239,29.174 177.235,7.25 156.703,7.25 C146.031,7.25 134.084,13.166 134.084,40.657 C134.084,62.581 143.248,83.576 163.199,83.576 C170.391,83.576 185.239,80.444 185.239,48.43 Z M110.884,45.877 C110.884,22.678 126.427,0.059 160.531,0.059 C189.995,0.059 208.438,19.778 208.438,43.325 C208.438,70.353 190.11,91 159.719,91 C125.5,91 110.884,66.409 110.884,45.877 L110.884,45.877 Z" id="Fill-13" fill="#A18564" mask="url(#mask-2)"></path>
            </g>
            <path d="M825.288,571.798234 C826.215,579.337234 827.376,582.238234 831.204,583.398234 C833.524,584.093234 836.307,584.326234 837.816,584.442234 C839.324,584.442234 840.019,584.789234 840.019,585.602234 C840.019,586.530234 839.091,586.761234 837.236,586.761234 C827.608,586.761234 818.213,586.761234 804.988,586.066234 C802.785,585.950234 802.321,585.253234 802.321,584.673234 C802.321,584.209234 802.785,583.745234 803.596,583.513234 C805.453,582.818234 805.568,582.121234 805.104,576.902234 L800.928,535.374234 L777.033,580.150234 C773.901,586.066234 773.205,586.761234 772.277,586.761234 C771.002,586.761234 770.305,585.602234 767.057,580.497234 C762.998,574.001234 755.922,560.778234 751.513,553.354234 C749.542,549.991234 744.438,540.479234 742.234,536.534234 L738.87,569.245234 C738.406,574.234234 738.406,576.785234 738.406,578.526234 C738.406,581.890234 739.566,583.282234 742.465,583.862234 C744.206,584.209234 745.25,584.326234 746.757,584.442234 C748.498,584.442234 748.845,584.789234 748.845,585.486234 C748.845,586.413234 748.381,586.761234 746.526,586.761234 C741.422,586.761234 735.042,586.413234 731.562,586.413234 C727.966,586.413234 722.514,586.761234 718.222,586.761234 C717.062,586.761234 715.671,586.761234 715.671,585.602234 C715.671,584.906234 716.367,584.442234 717.991,584.442234 C718.919,584.326234 720.194,584.326234 721.47,584.093234 C724.835,583.398234 725.994,580.730234 727.154,573.074234 L737.71,501.736234 C738.173,498.255234 738.986,497.211234 740.146,497.211234 C741.422,497.211234 742.234,498.371234 744.67,501.967234 L777.845,557.530234 L809.629,501.388234 C811.484,498.371234 812.412,497.211234 813.572,497.211234 C814.732,497.211234 815.428,498.835234 815.776,501.736234 L825.288,571.798234" id="Fill-15" fill="#A18564"></path>
            <mask id="mask-4" fill="white">
                <use xlink:href="#path-3"></use>
            </mask>
            <g id="Clip-17"></g>
            <path d="M877.839,532.706234 C877.839,513.799234 877.722,511.480234 877.49,507.767234 C877.258,504.404234 876.214,502.431234 873.314,501.736234 C872.27,501.503234 870.646,501.503234 869.486,501.388234 C867.978,501.271234 867.398,500.808234 867.398,500.112234 C867.398,499.415234 868.094,499.068234 869.951,499.068234 C876.562,499.068234 882.13,499.415234 887.234,499.415234 C889.67,499.415234 918.089,499.300234 919.945,499.300234 C922.265,499.300234 925.049,499.068234 926.209,498.835234 C927.021,498.603234 927.601,498.371234 928.065,498.371234 C928.645,498.371234 928.761,498.835234 928.761,499.415234 C928.761,499.995234 928.529,501.156234 928.181,504.519234 C927.833,506.839234 927.601,510.900234 927.253,516.931234 C927.253,517.859234 926.789,518.555234 926.093,518.555234 C925.513,518.555234 925.049,517.975234 924.933,516.931234 C924.933,515.656234 924.817,514.495234 924.353,512.870234 C923.773,510.202234 922.265,508.695234 916.697,508.232234 C912.87,507.883234 902.778,507.652234 899.297,507.652234 C898.601,507.652234 898.37,507.999234 898.37,508.812234 L898.37,534.330234 C898.37,535.143234 898.486,535.723234 899.297,535.723234 C902.546,535.838234 911.941,535.723234 916.117,535.607234 C921.801,535.374234 923.309,535.027234 924.585,532.939234 C925.281,531.895234 925.63,531.431234 926.209,531.431234 C926.905,531.431234 926.905,532.126234 926.905,532.823234 C926.905,533.983234 926.325,538.159234 925.977,542.682234 C925.861,545.350234 925.861,551.034234 925.861,552.310234 C925.861,553.818234 925.513,554.514234 924.817,554.514234 C924.005,554.514234 923.773,553.702234 923.541,552.659234 C923.425,551.730234 923.309,550.918234 923.193,549.991234 C922.729,546.626234 921.105,544.655234 915.422,544.306234 C912.173,544.075234 902.662,543.842234 899.066,543.842234 C898.486,543.842234 898.37,544.422234 898.37,545.350234 L898.37,553.354234 C898.37,557.298234 898.254,564.142234 898.37,568.550234 C898.486,576.669234 900.11,578.526234 912.985,578.526234 C916.002,578.526234 920.525,578.409234 923.773,577.134234 C927.021,575.858234 928.413,573.306234 929.457,567.970234 C929.689,566.577234 930.153,565.882234 930.849,565.882234 C931.777,565.882234 931.893,567.042234 931.893,568.434234 C931.893,572.957234 930.617,581.774234 930.037,583.978234 C929.225,586.993234 928.413,587.110234 924.121,587.110234 C908.114,587.110234 899.414,586.413234 887.234,586.413234 C881.782,586.413234 876.91,586.761234 870.53,586.761234 C868.442,586.761234 867.747,586.413234 867.747,585.602234 C867.747,585.022234 868.327,584.442234 870.066,584.442234 C871.459,584.326234 872.618,584.209234 873.547,583.978234 C876.795,583.513234 877.258,579.106234 877.49,571.798234 C877.722,567.158234 877.839,560.314234 877.839,553.122234 L877.839,532.706234" id="Fill-16" fill="#A18564" mask="url(#mask-4)"></path>
            <path d="M680.914,28.7122342 C680.938,35.1512342 680.023,45.9992342 672.716,52.4152342 C665.409,58.8312342 660.953,60.7912342 655.785,60.7912342 C650.617,60.7912342 641.171,56.6932342 637.607,53.3062342 C634.043,49.9202342 629.409,43.5042342 624.597,27.6432342 C619.785,11.7812342 605.528,0.37523418 591.983,0.0192341799 C578.439,-0.33776582 562.399,4.29623418 550.637,12.1382342 C538.875,19.9802342 524.26,32.0982342 518.558,33.7022342 C512.855,35.3062342 516.419,37.9802342 516.419,37.9802342 C516.419,37.9802342 508.577,44.5742342 501.092,50.9892342 C493.607,57.4062342 482.201,67.7422342 479.884,70.4152342 C477.568,73.0882342 479.884,76.6532342 479.884,76.6532342 C479.884,76.6532342 471.508,86.0982342 464.558,93.9402342 C457.607,101.782234 447.449,116.395234 440.32,124.950234 C433.192,133.504234 422.676,149.366234 413.409,158.811234 C404.142,168.256234 399.865,171.286234 400.4,173.425234 C400.934,175.564234 404.677,175.920234 407.706,173.425234 C410.736,170.930234 420.538,162.375234 420.538,162.375234 C420.538,162.375234 421.964,164.158234 423.924,163.801234 C425.884,163.445234 428.914,161.485234 428.914,161.485234 C428.914,161.485234 430.696,164.514234 435.152,164.870234 C439.607,165.227234 444.954,160.593234 444.954,160.593234 C444.954,160.593234 447.449,164.870234 451.904,164.870234 C456.359,164.870234 462.776,160.237234 466.34,157.207234 C469.904,154.177234 472.934,151.504234 472.934,151.504234 C472.934,151.504234 473.157,153.330234 474.493,154.667234 C475.83,156.004234 477.122,155.737234 477.122,155.737234 C477.122,155.737234 480.241,159.033234 482.068,160.014234 C483.894,160.994234 486.657,160.325234 486.657,160.325234 C486.657,160.325234 489.33,163.756234 494.097,163.490234 C498.864,163.222234 501.984,160.994234 504.88,158.054234 C507.776,155.113234 511.83,151.237234 511.83,151.237234 C511.83,151.237234 515.617,153.420234 517.8,153.821234 C519.984,154.222234 520.875,153.954234 520.875,153.954234 C520.875,153.954234 523.503,156.494234 527.78,155.959234 C532.058,155.425234 537.092,152.617234 541.547,148.741234 C546.003,144.866234 552.597,140.143234 552.552,140.277234 C552.508,140.410234 555.271,143.128234 558.612,143.885234 C561.954,144.643234 565.028,144.019234 565.028,144.019234 C565.028,144.019234 568.013,146.692234 572.201,146.469234 C576.389,146.246234 581.29,142.415234 581.29,142.415234 C581.29,142.415234 582.538,146.069234 587.172,146.024234 C591.805,145.979234 599.914,140.677234 599.914,140.677234 C599.914,140.677234 601.028,141.702234 603.344,142.237234 C605.661,142.772234 606.731,142.103234 606.731,142.103234 C606.731,142.103234 606.909,143.707234 611.142,144.108234 C615.374,144.509234 619.161,142.103234 626.246,136.801234 C633.33,131.499234 639.923,127.311234 639.923,127.311234 C639.923,127.311234 641.349,127.801234 643.711,128.158234 C646.072,128.514234 647.676,127.890234 647.676,127.890234 C647.676,127.890234 651.419,130.296234 651.775,131.945234 C652.131,133.593234 652.755,135.420234 650.617,137.692234 C648.478,139.964234 644.112,143.485234 642.196,148.162234 C640.28,152.841234 641.171,157.474234 640.369,160.994234 C639.568,164.514234 638.231,165.806234 636.226,166.564234 C634.221,167.321234 633.597,167.143234 629.631,165.272234 C625.666,163.400234 621.344,162.019234 618.27,161.930234 C615.196,161.841234 613.28,162.643234 612.523,163.356234 C611.765,164.069234 612.033,164.959234 612.033,164.959234 C612.033,164.959234 610.384,165.361234 608.959,167.409234 C607.533,169.459234 607.755,171.999234 607.755,171.999234 C607.755,171.999234 608.691,170.885234 609.716,169.905234 C610.74,168.925234 612.835,168.078234 612.835,168.078234 C612.835,168.078234 613.102,168.702234 614.216,168.702234 C615.33,168.702234 617.246,168.301234 617.959,168.702234 C618.672,169.103234 619.696,170.440234 619.696,170.440234 C619.696,170.440234 619.072,170.796234 616.355,172.712234 C613.637,174.628234 611.275,176.143234 610.072,178.370234 C608.869,180.598234 609.359,181.712234 609.359,181.712234 C609.359,181.712234 608.068,183.316234 608.379,185.945234 C608.691,188.574234 610.206,189.821234 610.206,189.821234 C610.206,189.821234 610.429,187.504234 610.785,186.301234 C611.142,185.098234 612.434,183.717234 612.434,183.717234 C612.434,183.717234 613.147,183.538234 614.528,182.158234 C615.909,180.777234 618.226,178.415234 619.429,178.059234 C620.631,177.702234 622.013,177.346234 622.547,177.479234 C623.082,177.613234 624.686,179.529234 624.686,179.529234 L623.26,183.093234 C621.79,185.499234 621.166,186.880234 620.721,189.197234 C620.275,191.514234 621.122,193.741234 621.122,193.741234 C621.122,193.741234 621.077,196.192234 621.924,198.241234 C622.77,200.291234 625.31,201.538234 625.31,201.538234 C625.31,201.538234 624.552,199.490234 624.419,198.153234 C624.285,196.816234 624.419,195.301234 624.419,195.301234 C624.419,195.301234 625.443,194.633234 626.023,192.940234 C626.602,191.246234 628.74,187.103234 630.612,185.499234 C632.483,183.895234 636.226,182.202234 637.206,182.291234 C638.186,182.380234 640.948,182.024234 642.018,183.272234 C643.087,184.519234 645.315,188.038234 645.538,189.509234 C645.76,190.979234 646.651,192.316234 646.651,192.316234 C646.651,192.316234 646.696,193.162234 646.117,195.078234 C645.538,196.994234 644.156,198.553234 644.29,198.509234 C644.423,198.464234 646.74,198.509234 647.899,197.306234 C649.057,196.103234 650.171,194.098234 650.171,194.098234 C650.171,194.098234 651.82,192.494234 652.087,190.266234 C652.354,188.038234 653.156,184.564234 651.909,181.712234 C650.661,178.861234 648.033,176.098234 647.81,175.340234 C647.587,174.583234 647.81,172.356234 648.968,171.509234 C650.127,170.662234 653.691,168.212234 658.77,166.653234 C663.849,165.093234 668.305,163.667234 670.8,163.088234 C673.295,162.509234 676.147,161.529234 676.77,161.617234 C677.394,161.707234 678.641,161.751234 678.731,163.801234 C678.819,165.851234 677.75,171.108234 674.364,176.409234 C670.978,181.712234 665.275,191.380234 661.443,196.237234 C657.612,201.093234 652.934,207.598234 652.221,208.533234 C651.508,209.469234 652.31,210.361234 653.647,211.741234 C654.983,213.122234 661.978,216.821234 665.141,218.024234 C668.305,219.227234 671.156,220.074234 671.557,220.920234 C671.958,221.766234 672.315,222.301234 672.315,222.301234 C672.315,222.301234 674.498,221.677234 676.904,221.856234 C679.31,222.033234 681.849,222.569234 682.874,223.370234 C683.899,224.172234 684.523,224.930234 684.523,224.930234 C684.523,224.930234 687.775,225.064234 690.849,224.930234 C693.923,224.796234 698.379,224.796234 698.379,224.796234 C698.379,224.796234 700.741,226.132234 703.591,226.089298 C706.443,226.043234 709.919,225.019234 709.919,225.019234 C709.919,225.019234 714.374,225.197234 717.315,225.153234 C720.255,225.108234 721.503,223.994234 721.503,223.994234 C721.503,223.994234 722.394,225.598234 723.686,224.751234 C724.978,223.905234 726.627,222.658234 728.899,222.524234 C731.172,222.390234 735.315,222.033234 735.315,222.033234 C735.315,222.033234 737.141,220.117234 739.859,219.227234 C742.577,218.335234 745.696,217.311234 745.696,217.311234 C745.696,217.311234 747.344,216.197234 749.527,215.038234 C751.711,213.880234 754.295,212.232234 755.096,211.162234 C755.899,210.093234 756.299,209.113234 754.607,206.974234 C752.914,204.835234 746.809,196.771234 740.304,186.746234 C733.799,176.722234 730.102,168.925234 729.701,166.341234 C729.299,163.756234 729.389,161.841234 730.414,161.529234 C731.438,161.217234 732.196,161.306234 735.315,162.375234 C738.433,163.445234 746.275,165.272234 749.082,166.385234 C751.889,167.499234 757.681,169.370234 759.017,171.241234 C760.354,173.113234 760.666,174.449234 760.309,175.430234 C759.953,176.409234 758.483,177.880234 757.369,179.840234 C756.255,181.801234 755.543,183.984234 755.587,186.925234 C755.631,189.866234 756.701,190.356234 756.701,190.356234 C756.701,190.356234 756.839,192.787234 758.394,195.212234 C760.622,198.687234 763.161,198.553234 763.161,198.553234 C763.161,198.553234 762.047,196.282234 761.601,194.633234 C761.156,192.984234 761.335,191.158234 761.335,191.158234 C761.335,191.158234 761.78,190.846234 762.582,188.707234 C763.383,186.569234 764.275,184.608234 765.879,183.761234 C767.483,182.915234 768.909,182.069234 771.804,182.559234 C774.701,183.048234 777.062,184.162234 779.29,187.861234 C781.517,191.559234 781.919,193.029234 782.275,193.697234 C782.631,194.366234 783.255,194.409234 783.255,194.409234 C783.255,194.409234 783.745,196.459234 783.567,197.974234 C783.388,199.490234 782.275,201.583234 782.275,201.583234 C782.275,201.583234 784.993,201.449234 786.062,198.687234 C787.131,195.925234 786.73,193.564234 786.864,193.564234 C786.998,193.564234 787.443,192.672234 787.443,190.356234 C787.443,188.038234 786.151,184.653234 785.127,183.227234 C784.101,181.801234 783.478,180.019234 783.745,179.128234 C784.012,178.237234 785.394,177.569234 786.864,177.569234 C788.335,177.569234 790.428,178.861234 792.122,180.509234 C793.814,182.158234 794.706,183.182234 795.374,184.117234 C796.043,185.053234 796.755,185.321234 796.755,185.321234 C796.755,185.321234 797.691,186.435234 797.691,187.504234 C797.691,188.574234 797.335,190.712234 797.335,190.712234 C797.335,190.712234 799.587,189.037234 799.919,187.103234 C800.453,183.984234 798.849,181.712234 798.849,181.712234 C798.849,181.712234 799.25,180.777234 798.225,178.861234 C797.201,176.945234 795.151,174.851234 792.745,173.782234 C790.339,172.712234 788.379,171.330234 788.335,170.930234 C788.29,170.529234 788.201,169.148234 789.849,168.791234 C791.498,168.435234 792.923,168.613234 793.591,168.524234 C794.26,168.435234 794.883,168.256234 794.883,168.256234 C794.883,168.256234 796.399,168.524234 797.646,169.593234 C798.894,170.662234 799.785,171.732234 799.785,171.732234 C799.785,171.732234 800.854,169.994234 799.295,167.722234 C797.735,165.449234 796.053,164.259234 794.349,162.999234 C794.349,162.999234 793.146,161.751234 791.186,161.751234 C789.225,161.751234 786.151,162.019234 783.077,163.311234 C780.003,164.603234 776.795,166.430234 775.101,166.564234 C773.409,166.698234 771.582,167.098234 770.067,165.361234 C768.552,163.622234 766.904,162.198234 766.993,158.098234 C767.082,153.999234 767.127,150.167234 764.498,146.335234 C761.869,142.504234 758.26,138.940234 757.235,137.113234 C756.211,135.286234 755.275,133.638234 756.255,132.167234 C757.235,130.698234 761.379,128.336234 761.557,128.246234 C761.735,128.158234 762.894,127.935234 764.631,127.980234 C766.369,128.024234 767.795,127.980234 767.839,127.935234 C767.883,127.890234 771.671,129.048234 774.656,131.588234 C777.641,134.128234 784.547,139.430234 788.825,141.658234 C793.101,143.885234 795.909,144.509234 797.735,144.286234 C799.562,144.064234 800.72,142.548234 800.72,142.548234 C800.72,142.548234 802.369,142.772234 804.641,142.325234 C806.914,141.880234 808.383,140.945234 808.383,140.945234 C808.383,140.945234 812.483,143.529234 815.869,144.866234 C819.255,146.202234 821.483,146.559234 822.775,145.756234 C824.067,144.954234 826.161,142.504234 826.161,142.504234 C826.161,142.504234 831.196,145.667234 833.691,146.113234 C836.186,146.559234 837.923,146.380234 838.993,145.890234 C840.062,145.400234 841.577,144.241234 841.577,144.241234 C841.577,144.241234 846.701,145.311234 849.641,143.974234 C852.582,142.638234 854.898,140.767234 854.898,140.767234 C854.898,140.767234 858.062,141.435234 861.359,144.241234 C864.656,147.048234 870.493,152.395234 874.636,154.266234 C878.78,156.138234 880.116,156.449234 882.611,155.825234 C885.106,155.202234 887.69,153.910234 887.69,153.910234 C887.69,153.910234 888.448,154.177234 891.032,153.464234 C893.616,152.751234 895.711,150.969234 895.711,150.969234 C895.711,150.969234 901.503,156.449234 904.844,159.301234 C908.185,162.153234 911.037,164.069234 914.958,163.311234 C918.879,162.553234 921.374,160.059234 921.374,160.059234 C921.374,160.059234 923.379,161.083234 925.606,160.103234 C927.834,159.122234 929.259,156.940234 929.259,156.940234 C929.259,156.940234 931.621,156.227234 933.18,154.935234 C934.74,153.643234 934.517,151.949234 934.517,151.949234 C934.517,151.949234 935.72,152.217234 937.235,152.662234 C938.75,153.108234 941.824,156.272234 946.28,159.569234 C950.735,162.866234 954.834,164.959234 957.24,164.782234 C959.646,164.603234 961.562,161.440234 961.562,161.440234 C961.562,161.440234 962.23,160.949234 963.032,161.038234 C963.834,161.128234 964.458,160.772234 964.458,160.772234 C964.458,160.772234 967.309,164.069234 970.874,164.514234 C974.438,164.959234 975.685,164.380234 976.755,163.266234 C977.824,162.153234 978.715,161.306234 978.715,161.306234 C978.715,161.306234 981.032,162.064234 982.903,162.909234 C984.774,163.756234 985.977,163.400234 986.29,163.177234 C986.601,162.954234 987.047,162.509234 987.047,162.509234 C987.047,162.509234 989.987,164.202234 994.666,168.167234 C999.343,172.133234 1003.31,174.940234 1005.31,174.851234 C1007.32,174.761234 1008.21,173.202234 1007.32,171.687234 C1006.43,170.172234 1001.93,167.187234 994.888,159.167234 C987.848,151.148234 980.23,140.945234 972.388,131.232234 C964.547,121.519234 961.295,116.217234 953.319,106.459234 C945.344,96.7022342 942.448,92.7822342 937.101,86.7222342 C931.755,80.6622342 928.414,76.2962342 928.414,76.2962342 C928.414,76.2962342 929.527,75.1822342 929.126,73.1332342 C928.725,71.0832342 928.146,70.6822342 923.824,66.7172342 C919.503,62.7512342 915.983,58.9642342 908.319,52.2822342 C900.656,45.5982342 891.834,37.6232342 891.834,37.6232342 C891.834,37.6232342 892.77,36.3752342 890.988,34.8612342 C889.206,33.3462342 886.888,32.1882342 877.622,26.5292342 C868.354,20.8702342 863.364,15.6142342 854.943,11.1582342 C846.522,6.70223418 837.344,1.89123418 827.409,0.77723418 C817.473,-0.33776582 807.938,-0.42576582 799.517,5.90123418 C791.096,12.2272342 786.507,19.0442342 783.211,28.6232342 C779.914,38.2022342 776.082,51.4352342 767.394,55.7572342 C758.706,60.0782342 754.478,60.6642342 752.156,60.7462342 C745.746,60.9742342 737.765,56.3362342 734.468,52.1032342 C731.172,47.8702342 728.587,43.2822342 727.874,39.4502342 C727.161,35.6182342 726.938,31.5642342 726.938,31.5642342 C726.938,31.5642342 727.919,29.2912342 731.661,28.6232342 C735.404,27.9542342 737.453,27.6882342 740.483,28.1782342 C743.512,28.6672342 746.72,30.2272342 746.72,30.2272342 C746.72,30.2272342 747.478,29.7812342 747.389,26.9752342 C747.299,24.1672342 747.255,17.7962342 740.349,14.2772342 C733.443,10.7572342 725.201,9.73223418 723.464,9.37523418 C721.725,9.01923418 717.76,6.34623418 713.617,5.54423418 C709.473,4.74223418 700.696,3.98523418 695.349,6.88023418 C690.003,9.77723418 685.592,12.4062342 683.409,17.3062342 C681.226,22.2072342 680.906,26.6182342 680.914,28.7122342" id="Fill-18" fill="#A18564" mask="url(#mask-4)"></path>
        </g>
    </g>
</svg>